# xmcd CD database file
#
# Track frame offsets:
#	150
#	25833
#	52358
#	81688
#	105948
#	125288
#	149648
#	162113
#	175078
#	191773
#	208183
#	227948
#
# Disc length: 3498 seconds
#
# Revision: 0
# Processed by: cddbd v1.5.2PL0 Copyright (c) Steve Scherf et al.
# Submitted via: CDex 1.81
#
DISCID=b00da80c
DTITLE=Earl Coleman - Earl Coleman Returns +6
DYEAR=1956
DGENRE=Jazz
TTITLE0=Say It Isn't So
TTITLE1=Reminiscing
TTITLE2=Social Call
TTITLE3=It's You Or No One
TTITLE4=Come Rain Or Come Shine
TTITLE5=No Love, No Nothin'
TTITLE6=This is Always
TTITLE7=My Last Affair
TTITLE8=Ghost Of A Chance
TTITLE9=I Haven't Changed A Thing
TTITLE10=My Ideal
TTITLE11=Two Different Worlds
EXTD=YEAR: 1956
EXTT0=
EXTT1=
EXTT2=
EXTT3=
EXTT4=
EXTT5=
EXTT6=
EXTT7=
EXTT8=
EXTT9=
EXTT10=
EXTT11=
PLAYORDER=
